<svg width="416" height="77" viewBox="0 0 416 77" fill="none" xmlns="http://www.w3.org/2000/svg">
<path fill-rule="evenodd" clip-rule="evenodd" d="M0.249023 75.702V9.10398H9.56703L53.857 62.6992V9.10398H62.715V75.702H53.397L9.10703 21.5779V75.702H0.249023ZM134.845 73.059C128.978 75.067 122.651 76.124 115.978 76.124C89.749 76.124 76.635 64.602 76.635 41.4514C76.635 19.5694 89.289 8.57548 114.598 8.57548C121.845 8.57548 128.633 9.52688 134.845 11.324V18.7237C128.633 16.5038 122.19 15.4467 115.633 15.4467C95.846 15.4467 85.953 24.1149 85.953 41.24C85.953 59.7393 95.731 68.936 115.173 68.936C118.279 68.936 121.73 68.513 125.527 67.773V45.4684H134.845V73.059ZM149.8 50.0139V9.10398H159.118V50.0139C159.118 62.8049 166.02 69.253 179.94 69.253C193.745 69.253 200.762 62.8049 200.762 50.0139V9.10398H210.08V50.0139C210.08 67.456 200.072 76.23 179.94 76.23C159.808 76.23 149.8 67.456 149.8 50.0139ZM236.079 9.10398V68.725H274.042V75.702H226.761V9.10398H236.079ZM287.502 75.702H277.723L313.731 0.330078L349.738 75.702H339.384L330.066 54.7709H306.138L308.669 47.794H326.96L313.385 17.6666L287.502 75.702ZM359.746 75.702V9.10398H390.692C404.496 9.10398 411.399 14.3896 411.399 25.0663C411.399 33.7346 404.611 40.1829 391.152 44.3056L416 75.702H403.691L380.683 45.7855V40.1829C394.488 38.1744 401.505 33.3117 401.505 25.4891C401.505 19.3579 397.709 16.2923 390.001 16.2923H369.294V75.702H359.746Z" fill="white"/>
</svg>
