<svg width="240" height="244" viewBox="0 0 240 244" fill="none" xmlns="http://www.w3.org/2000/svg">
<path fill-rule="evenodd" clip-rule="evenodd" d="M0 120C0 53.7258 53.7258 0 120 0V0C186.274 0 240 53.7258 240 120V124C240 190.274 186.274 244 120 244V244C53.7258 244 0 190.274 0 124V120Z" fill="url(#paint0_linear_6_5)"/>
<path fill-rule="evenodd" clip-rule="evenodd" d="M186.309 131.422L187.509 122.195C198.57 129.429 198.716 132.422 198.713 132.501C198.695 132.521 196.807 134.241 186.309 131.422ZM180.238 129.58C161.116 123.256 134.486 109.913 123.707 104.351C123.707 104.303 123.72 104.259 123.72 104.211C123.717 102.036 122.925 99.9518 121.517 98.4144C120.108 96.8771 118.199 96.0127 116.208 96.0108C112.071 96.0108 108.703 99.6895 108.703 104.211C108.703 108.733 112.071 112.411 116.208 112.411C118.027 112.411 119.676 111.671 120.979 110.493C133.658 117.045 160.082 130.197 179.345 136.408L171.73 195.124C171.709 195.282 171.699 195.441 171.699 195.601C171.699 200.775 150.743 210.272 116.502 210.272C81.8983 210.272 60.7206 200.775 60.7206 195.605C60.7206 195.448 60.7112 195.294 60.6894 195.141L44.7764 68.1717C58.5522 78.5286 88.1817 84.0057 116.521 84.0057C144.816 84.0057 174.395 78.5457 188.196 68.2229L180.238 129.58ZM43.0954 54.9312C43.3204 50.4403 66.9477 32.825 116.521 32.825C166.087 32.825 189.718 50.4335 189.946 54.9312V56.4634C187.228 66.5303 156.608 77.1875 116.521 77.1875C76.3649 77.1875 45.7293 66.4996 43.0954 56.4156V54.9312ZM196.195 55.0063C196.195 43.1819 165.156 26 116.521 26C67.885 26 36.8464 43.1819 36.8464 55.0063L37.1401 57.5793L54.4748 195.867C54.8903 211.333 92.6497 217.1 116.502 217.1C146.097 217.1 177.539 209.668 177.945 195.874L185.431 138.217C189.596 139.305 193.024 139.861 195.773 139.861C199.473 139.861 201.972 138.872 203.488 136.903C204.095 136.135 204.534 135.225 204.77 134.243C205.006 133.261 205.033 132.233 204.85 131.238C204.037 126.519 198.907 121.427 188.453 114.913L195.876 57.7124L196.195 55.0063Z" fill="white"/>
<defs>
<linearGradient id="paint0_linear_6_5" x1="6.70552e-05" y1="19520" x2="248.065" y2="0.102534" gradientUnits="userSpaceOnUse">
<stop stop-color="#1B660F"/>
<stop offset="1" stop-color="#6CAE3E"/>
</linearGradient>
</defs>
</svg>
