<svg width="681" height="351" viewBox="0 0 1000 351" fill="none" xmlns="http://www.w3.org/2000/svg">
<path fill-rule="evenodd" clip-rule="evenodd" d="M651.833 75.9201H647.084V73.1886H659.9V75.9201H655.15V89.5628H651.833V75.9201ZM677.407 76.5994H677.349L672.629 89.5554H670.463L665.771 76.5994H665.714V89.5554H662.562V73.1813H667.189L671.535 84.7643L675.881 73.1813H680.465V89.5554H677.414L677.407 76.5994ZM231.681 229.658C216.951 242.755 201.38 250.122 187.399 250.122C167.481 250.122 156.674 237.846 156.674 218.201C156.674 196.932 168.244 181.37 214.555 181.37H231.674L231.681 229.658ZM272.336 276.714V131.044C272.336 93.8151 251.641 69.2465 201.754 69.2465C172.648 69.2465 147.132 76.6215 126.387 86.0193L132.36 111.821C148.701 105.664 169.827 99.9572 190.565 99.9572C219.304 99.9572 231.674 111.821 231.674 136.382V154.801H217.311C147.499 154.801 115.997 182.588 115.997 224.365C115.997 260.362 136.756 280.826 175.835 280.826C200.955 280.826 219.722 270.188 237.243 254.618L240.431 276.714H272.336ZM408.024 276.714H357.331L296.29 72.9524H340.572L378.457 198.165L386.89 235.786C406.002 181.37 419.566 126.128 426.351 72.9524H469.41C457.882 140.044 437.116 213.705 408.024 276.714ZM602.572 229.658C587.799 242.755 572.228 250.122 558.276 250.122C538.358 250.122 527.565 237.846 527.565 218.201C527.565 196.932 539.143 181.37 585.425 181.37H602.572V229.658ZM643.242 276.714V131.044C643.242 93.8151 622.482 69.2465 572.645 69.2465C543.51 69.2465 518.002 76.6215 497.257 86.0193L503.229 111.821C519.57 105.664 540.74 99.9572 561.485 99.9572C590.181 99.9572 602.565 111.821 602.565 136.382V154.801H588.202C518.383 154.801 486.902 182.588 486.902 224.365C486.902 260.362 507.619 280.826 546.705 280.826C571.847 280.826 590.584 270.188 608.149 254.618L611.351 276.714H643.242ZM71.4198 311.337C59.8348 328.708 41.0974 342.461 20.6114 350.22L0.535645 325.962C16.143 317.745 29.5124 304.479 35.7366 292.136C41.0974 281.136 43.3352 266.991 43.3352 233.136V0.479492H86.5449V229.924C86.5449 275.208 83.0191 293.509 71.4198 311.337Z" fill="white"/>
</svg>
