<svg width="377" height="74" viewBox="0 0 377 74" fill="none" xmlns="http://www.w3.org/2000/svg">
<path d="M28.1637 4.816V41.896C28.1637 46.024 26.8917 49.336 24.3477 51.832C21.8037 54.28 18.4437 55.504 14.2677 55.504C10.0437 55.504 6.65966 54.256 4.11566 51.76C1.57166 49.216 0.299656 45.76 0.299656 41.392H6.85166C6.89966 43.84 7.52366 45.832 8.72366 47.368C9.97166 48.904 11.8197 49.672 14.2677 49.672C16.7157 49.672 18.5397 48.952 19.7397 47.512C20.9397 46.024 21.5397 44.152 21.5397 41.896V4.816H28.1637ZM38.6233 35.128C38.6233 31.096 39.4393 27.568 41.0713 24.544C42.7033 21.472 44.9353 19.096 47.7673 17.416C50.6473 15.736 53.8393 14.896 57.3433 14.896C60.7993 14.896 63.7993 15.64 66.3433 17.128C68.8873 18.616 70.7833 20.488 72.0313 22.744V15.544H78.6553V55H72.0313V47.656C70.7353 49.96 68.7913 51.88 66.1993 53.416C63.6553 54.904 60.6793 55.648 57.2713 55.648C53.7673 55.648 50.5993 54.784 47.7673 53.056C44.9353 51.328 42.7033 48.904 41.0713 45.784C39.4393 42.664 38.6233 39.112 38.6233 35.128ZM72.0313 35.2C72.0313 32.224 71.4313 29.632 70.2313 27.424C69.0313 25.216 67.3993 23.536 65.3353 22.384C63.3193 21.184 61.0873 20.584 58.6393 20.584C56.1913 20.584 53.9593 21.16 51.9433 22.312C49.9273 23.464 48.3193 25.144 47.1193 27.352C45.9193 29.56 45.3193 32.152 45.3193 35.128C45.3193 38.152 45.9193 40.792 47.1193 43.048C48.3193 45.256 49.9273 46.96 51.9433 48.16C53.9593 49.312 56.1913 49.888 58.6393 49.888C61.0873 49.888 63.3193 49.312 65.3353 48.16C67.3993 46.96 69.0313 45.256 70.2313 43.048C71.4313 40.792 72.0313 38.176 72.0313 35.2ZM104.416 48.952L116.656 15.544H123.64L108.16 55H100.528L85.0476 15.544H92.1036L104.416 48.952ZM127.639 35.128C127.639 31.096 128.455 27.568 130.087 24.544C131.719 21.472 133.951 19.096 136.783 17.416C139.663 15.736 142.855 14.896 146.359 14.896C149.815 14.896 152.815 15.64 155.359 17.128C157.903 18.616 159.799 20.488 161.047 22.744V15.544H167.671V55H161.047V47.656C159.751 49.96 157.807 51.88 155.215 53.416C152.671 54.904 149.695 55.648 146.287 55.648C142.783 55.648 139.615 54.784 136.783 53.056C133.951 51.328 131.719 48.904 130.087 45.784C128.455 42.664 127.639 39.112 127.639 35.128ZM161.047 35.2C161.047 32.224 160.447 29.632 159.247 27.424C158.047 25.216 156.415 23.536 154.351 22.384C152.335 21.184 150.103 20.584 147.655 20.584C145.207 20.584 142.975 21.16 140.959 22.312C138.943 23.464 137.335 25.144 136.135 27.352C134.935 29.56 134.335 32.152 134.335 35.128C134.335 38.152 134.935 40.792 136.135 43.048C137.335 45.256 138.943 46.96 140.959 48.16C142.975 49.312 145.207 49.888 147.655 49.888C150.103 49.888 152.335 49.312 154.351 48.16C156.415 46.96 158.047 45.256 159.247 43.048C160.447 40.792 161.047 38.176 161.047 35.2ZM194.655 55.504C191.343 55.504 188.367 54.928 185.727 53.776C183.135 52.576 181.095 50.944 179.607 48.88C178.119 46.768 177.351 44.344 177.303 41.608H184.287C184.527 43.96 185.487 45.952 187.167 47.584C188.895 49.168 191.391 49.96 194.655 49.96C197.775 49.96 200.223 49.192 201.999 47.656C203.823 46.072 204.735 44.056 204.735 41.608C204.735 39.688 204.207 38.128 203.151 36.928C202.095 35.728 200.775 34.816 199.191 34.192C197.607 33.568 195.471 32.896 192.783 32.176C189.471 31.312 186.807 30.448 184.791 29.584C182.823 28.72 181.119 27.376 179.679 25.552C178.287 23.68 177.591 21.184 177.591 18.064C177.591 15.328 178.287 12.904 179.679 10.792C181.071 8.68 183.015 7.048 185.511 5.896C188.055 4.744 190.959 4.168 194.223 4.168C198.927 4.168 202.767 5.344 205.743 7.696C208.767 10.048 210.471 13.168 210.855 17.056H203.655C203.415 15.136 202.407 13.456 200.631 12.016C198.855 10.528 196.503 9.784 193.575 9.784C190.839 9.784 188.607 10.504 186.879 11.944C185.151 13.336 184.287 15.304 184.287 17.848C184.287 19.672 184.791 21.16 185.799 22.312C186.855 23.464 188.127 24.352 189.615 24.976C191.151 25.552 193.287 26.224 196.023 26.992C199.335 27.904 201.999 28.816 204.015 29.728C206.031 30.592 207.759 31.96 209.199 33.832C210.639 35.656 211.359 38.152 211.359 41.32C211.359 43.768 210.711 46.072 209.415 48.232C208.119 50.392 206.199 52.144 203.655 53.488C201.111 54.832 198.111 55.504 194.655 55.504ZM218.553 35.2C218.553 31.12 219.369 27.568 221.001 24.544C222.633 21.472 224.889 19.096 227.769 17.416C230.697 15.736 234.033 14.896 237.777 14.896C242.625 14.896 246.609 16.072 249.729 18.424C252.897 20.776 254.985 24.04 255.993 28.216H248.937C248.265 25.816 246.945 23.92 244.977 22.528C243.057 21.136 240.657 20.44 237.777 20.44C234.033 20.44 231.009 21.736 228.705 24.328C226.401 26.872 225.249 30.496 225.249 35.2C225.249 39.952 226.401 43.624 228.705 46.216C231.009 48.808 234.033 50.104 237.777 50.104C240.657 50.104 243.057 49.432 244.977 48.088C246.897 46.744 248.217 44.824 248.937 42.328H255.993C254.937 46.36 252.825 49.6 249.657 52.048C246.489 54.448 242.529 55.648 237.777 55.648C234.033 55.648 230.697 54.808 227.769 53.128C224.889 51.448 222.633 49.072 221.001 46C219.369 42.928 218.553 39.328 218.553 35.2ZM271.287 21.952C272.439 19.696 274.071 17.944 276.183 16.696C278.343 15.448 280.959 14.824 284.031 14.824V21.592H282.303C274.959 21.592 271.287 25.576 271.287 33.544V55H264.735V15.544H271.287V21.952ZM294.979 9.136C293.731 9.136 292.675 8.704 291.811 7.84C290.947 6.976 290.515 5.92 290.515 4.672C290.515 3.424 290.947 2.368 291.811 1.504C292.675 0.639997 293.731 0.207997 294.979 0.207997C296.179 0.207997 297.187 0.639997 298.003 1.504C298.867 2.368 299.299 3.424 299.299 4.672C299.299 5.92 298.867 6.976 298.003 7.84C297.187 8.704 296.179 9.136 294.979 9.136ZM298.147 15.544V55H291.595V15.544H298.147ZM315.866 22.816C317.162 20.56 319.082 18.688 321.626 17.2C324.218 15.664 327.218 14.896 330.626 14.896C334.13 14.896 337.298 15.736 340.13 17.416C343.01 19.096 345.266 21.472 346.898 24.544C348.53 27.568 349.346 31.096 349.346 35.128C349.346 39.112 348.53 42.664 346.898 45.784C345.266 48.904 343.01 51.328 340.13 53.056C337.298 54.784 334.13 55.648 330.626 55.648C327.266 55.648 324.29 54.904 321.698 53.416C319.154 51.88 317.21 49.984 315.866 47.728V73.72H309.314V15.544H315.866V22.816ZM342.65 35.128C342.65 32.152 342.05 29.56 340.85 27.352C339.65 25.144 338.018 23.464 335.954 22.312C333.938 21.16 331.706 20.584 329.258 20.584C326.858 20.584 324.626 21.184 322.562 22.384C320.546 23.536 318.914 25.24 317.666 27.496C316.466 29.704 315.866 32.272 315.866 35.2C315.866 38.176 316.466 40.792 317.666 43.048C318.914 45.256 320.546 46.96 322.562 48.16C324.626 49.312 326.858 49.888 329.258 49.888C331.706 49.888 333.938 49.312 335.954 48.16C338.018 46.96 339.65 45.256 340.85 43.048C342.05 40.792 342.65 38.152 342.65 35.128ZM365.962 20.944V44.2C365.962 46.12 366.37 47.488 367.186 48.304C368.002 49.072 369.418 49.456 371.434 49.456H376.258V55H370.354C366.706 55 363.97 54.16 362.146 52.48C360.322 50.8 359.41 48.04 359.41 44.2V20.944H354.298V15.544H359.41V5.608H365.962V15.544H376.258V20.944H365.962Z" fill="white"/>
</svg>
