<svg width="101" height="29" viewBox="0 0 101 29" fill="none" xmlns="http://www.w3.org/2000/svg">
<path d="M18.4611 14.2C20.7643 11.5 20.8689 8.50001 19.6127 5.50001C18.3564 2.50001 15.7393 1.10001 12.4939 1.00001C8.62051 0.900011 4.64238 1.00001 0.768946 1.00001H0.0361328V26.9H3.17676V17.1H8.09707C8.7252 17.1 9.24863 17.3 9.5627 17.8L15.8439 27.1C15.9486 27.3 16.2627 27.6 16.4721 27.6H20.5549C18.0424 23.9 15.6346 20.4 13.1221 16.8C15.3205 16.5 17.2049 15.8 18.4611 14.2ZM3.17676 14V4.10001H4.32832C6.73613 4.10001 9.24863 4.00002 11.6564 4.20002C14.483 4.30002 16.4721 6.40001 16.4721 9.10001C16.4721 11.8 14.1689 13.9 11.3424 14C8.82988 14.1 6.31738 14 3.17676 14ZM43.6908 15.3C42.0158 8.30001 35.3158 6.50002 30.1861 8.70002C26.208 10.4 24.4283 13.7 24.3236 17.8C24.2189 20.9 25.1611 23.7 27.6736 25.8C30.5002 28.2 33.9549 28.5 37.5143 27.9C39.5033 27.5 41.283 26.6 42.6439 25.2C42.1205 24.5 41.5971 23.8 41.0736 23.2C38.1424 25.6 34.8971 26.4 31.3377 24.8C29.0346 23.7 27.883 21 27.6736 19H43.9002V17.7C44.0049 16.8 43.9002 16 43.6908 15.3ZM27.883 16.9C27.5689 13.9 30.7096 10.7 34.1643 10.7C38.1424 10.6 40.6549 12.9 40.7596 16.9H27.883ZM60.0221 8.20002C58.4518 7.90002 56.7768 7.80001 55.2064 7.90001C52.6939 8.10001 50.4955 9.20001 48.7158 11C49.2393 11.7 49.658 12.4 50.2861 13.2C50.4955 13 50.7049 12.8 50.9143 12.7C52.5893 11.2 54.5783 10.4 56.9861 10.6C58.8705 10.7 60.6502 11.3 61.1736 13.1C61.5924 14.5 61.4877 16 61.5924 17.5C61.2783 17.5 61.1736 17.4 61.069 17.3C58.5565 15.3 55.7299 14.9 52.694 15.6C49.8674 16.3 48.0877 18.4 47.8783 21.1C47.6689 24.2 49.1346 26.5 51.9611 27.6C53.7408 28.3 55.7299 28.3 57.6143 27.9C59.0799 27.6 59.708 26.8 61.8018 25.7V27H64.733C64.733 23 64.8377 18.1 64.733 13.5C64.733 10.6 62.9533 8.80002 60.0221 8.20002ZM61.4877 20.8C61.383 21.1 61.4877 21.4 61.4877 21.7C61.4877 23.8 60.9643 24.5 58.8705 25.3C57.4049 25.8 55.8346 26 54.2643 25.5C52.4846 25 51.2283 23.5 51.2283 21.8C51.1236 20.1 52.2752 18.4 54.0549 17.9C56.4627 17.1 58.6611 17.6 60.6502 19C61.2783 19.5 61.6971 20 61.4877 20.8ZM77.819 10.9C80.5408 10.1 83.0533 10.6 84.9377 12.8L85.2518 13C85.9846 12.4 86.6127 11.8 87.4502 11.1C87.1361 10.8 87.0314 10.6 86.8221 10.3C83.7861 7.20001 77.819 6.80001 74.1549 9.30001C69.0252 12.9 69.1299 19.9 71.6424 23.6C74.0502 27.1 77.5049 28.3 81.5877 27.8C83.9955 27.5 85.9846 26.4 87.5549 24.5C86.8221 23.9 86.0893 23.3 85.3565 22.6C85.1471 22.8 85.0424 22.9 84.9377 23.1C82.1111 26.1 77.4002 25.8 74.8877 22.6C73.4221 20.7 73.108 18.5 73.5268 16.3C73.7361 13.8 75.0971 11.8 77.819 10.9ZM99.5939 24.5C99.3846 24.6 99.2799 24.7 99.2799 24.7C98.4424 25.3 97.6049 25.4 96.6627 25.1C95.7205 24.7 95.6158 23.9 95.5111 23.1V11.7C95.5111 11.5 95.5111 11.9 95.6158 10.9H99.5939V7.90001H95.4064V2.90001H92.2658V8.30001H89.544C89.3346 8.30001 89.0205 8.50002 89.0205 8.70002C88.9158 9.40002 89.0205 9.90001 89.0205 10.9H92.3705V23.7C92.3705 25.3 92.7893 26.7 94.2549 27.5C95.8252 28.4 98.8611 28.2 100.222 27.1C100.431 27 100.536 26.6 100.536 26.5C100.222 25.9 99.908 25.2 99.5939 24.5Z" fill="white"/>
</svg>
