<svg width="338" height="116" viewBox="0 0 338 116" fill="none" xmlns="http://www.w3.org/2000/svg">
<path d="M97.1472 26.1184C112.805 26.1184 128.179 38.5026 128.179 60.8511V61.1358C128.179 83.342 112.948 95.8685 97.1472 95.8685C86.0441 95.8685 79.0691 90.317 74.3716 84.0537V107.683C74.3716 111.872 71.0854 115.238 66.9303 115.366L66.6849 115.37C62.5568 115.37 59.1405 111.954 59.1405 107.826V34.0898C58.9981 29.9618 62.4145 26.5454 66.5426 26.4031H66.6849C70.8732 26.4031 74.2399 29.6893 74.3679 33.8444L74.3716 34.0898V38.6449C79.3538 31.6699 86.3288 26.1184 97.1472 26.1184ZM299.85 25.976C310.496 25.976 317.421 31.3527 322.386 38.1715L322.625 38.5026V33.9475L322.629 33.7021C322.754 29.63 325.99 26.3925 330.062 26.2647L330.312 26.2607H330.454C334.643 26.4003 338.009 29.6892 338.003 33.8444L337.999 34.0898V80.7797C337.999 92.0251 335.009 100.424 329.458 105.975C323.479 112.096 314.084 114.943 301.985 114.943C293.017 114.943 284.191 112.95 276.078 108.964C273.515 108.11 271.807 105.548 271.807 102.844C271.95 99.2849 274.797 96.5803 278.355 96.5803C279.352 96.5803 280.206 96.7226 281.06 97.1496C287.323 100.708 294.44 102.416 301.558 102.416C314.511 102.416 321.913 96.1532 322.625 84.0537C317.928 90.1746 310.953 95.7262 299.85 95.7262C284.207 95.7262 269.123 83.4489 268.822 61.6567L268.818 60.9935V60.7088C268.818 38.3602 284.191 25.976 299.85 25.976ZM239.067 26.4031C254.156 26.4031 262.839 36.5097 262.839 52.0256V88.0394C262.982 92.1675 259.708 95.4415 255.58 95.5838H255.295C251.167 95.7262 247.751 92.3098 247.608 88.1818V56.723C247.608 46.3317 242.484 40.3531 233.231 40.3531C224.406 40.3531 218.142 46.6164 218.142 57.0077V88.1818C218.142 92.4522 214.726 95.8685 210.456 95.8685C206.185 95.8685 202.769 92.4522 202.769 88.1818L202.911 34.2322C202.769 30.1041 206.185 26.6878 210.313 26.5454H210.456C214.644 26.5454 218.011 29.8316 218.139 33.9868L218.142 34.2322V37.3638C222.697 30.2465 230.669 26.1184 239.067 26.4031ZM27.2547 26.2607C34.6568 26.4031 41.7741 28.2536 48.3221 31.6699C50.5997 32.8087 52.0231 34.9439 52.0231 37.5062C52.0231 40.9225 49.1762 43.7694 45.7599 43.7694H45.6175C44.6211 43.7694 43.6246 43.4847 42.6282 43.0577C37.7884 40.3531 32.5216 38.7873 26.97 38.5026C20.9914 38.5026 17.5751 41.3495 17.5751 45.0506V45.3353C17.5751 50.3174 24.8348 52.3103 32.6639 54.8725C32.8774 54.9375 33.0915 55.0032 33.306 55.0698L33.9505 55.2718C34.7036 55.5104 35.4603 55.7596 36.2152 56.0219L36.8616 56.25C45.3646 59.2969 53.4466 64.1065 53.4466 74.3741V74.6588C53.4466 88.7512 42.4859 95.7262 28.6782 95.7262C19.568 95.5838 10.6001 92.8792 3.05569 87.7547C1.20518 86.616 0.066392 84.6231 0.208739 82.4879C0.208739 79.0716 2.91335 76.2246 6.32968 76.2246H6.47201C7.61079 76.2246 8.74957 76.5093 9.746 77.0787C15.4399 81.0644 22.1302 83.1996 28.9629 83.4843C35.5108 83.4843 39.3542 80.6374 39.3542 76.2246V75.9399C39.3542 70.6731 32.2369 68.9649 24.4078 66.545C23.5893 66.3077 22.7619 66.0626 21.9328 65.8051L21.3107 65.6096C12.3931 62.7719 3.48273 58.3778 3.48273 46.9011V46.6164C3.48273 33.9475 14.0164 26.2607 27.2547 26.2607ZM187.395 26.5454C191.584 26.5454 194.95 29.8316 195.078 33.9868L195.082 34.2322V88.1818C195.082 92.4522 191.666 95.7262 187.395 95.7262C183.125 95.7262 179.851 92.3098 179.851 88.1818V34.2322C179.709 30.1041 183.125 26.6878 187.253 26.5454H187.395ZM173.73 32.8087V33.9475C173.73 37.6485 171.168 40.7801 167.609 41.3495C156.648 43.2001 149.246 52.7373 149.246 65.9756V88.0394C149.246 92.3098 145.83 95.5838 141.56 95.5838C137.512 95.5838 134.149 92.437 134.019 88.4236L134.015 88.1811V88.0394L134.157 34.0898C134.015 29.9618 137.431 26.5454 141.56 26.4031H141.702C145.89 26.4031 149.257 29.6893 149.385 33.8444L149.389 34.0898V37.7909C150.1 32.097 159.495 26.4031 166.186 26.4031C170.029 26.1184 173.445 28.9653 173.73 32.8087ZM93.7309 39.499C83.3395 39.499 74.2293 48.1822 74.2293 60.8511V61.1358C74.2293 73.947 83.3395 82.4879 93.7309 82.4879C104.122 82.4879 112.805 74.3741 112.805 61.1358V60.8511C112.805 47.8975 104.122 39.499 93.7309 39.499ZM303.408 39.3567C293.124 39.3567 284.513 47.5829 284.337 60.3096L284.334 60.7088V60.9935C284.334 74.2317 292.875 82.4879 303.408 82.4879C313.835 82.4879 322.866 73.981 322.911 61.3843L322.91 60.9935V60.7088C322.91 48.0399 313.8 39.3567 303.408 39.3567ZM195.224 7.75559V8.04029C195.224 12.3107 191.808 15.727 187.538 15.727C183.267 15.727 179.851 12.3107 179.851 8.04029C179.851 3.85199 183.137 0.48525 187.292 0.357308L187.538 0.353537C191.666 0.211189 195.082 3.62752 195.224 7.75559Z" fill="white"/>
</svg>
