<svg width="369" height="61" viewBox="0 0 369 61" fill="none" xmlns="http://www.w3.org/2000/svg">
<path d="M17.456 51.504C14.144 51.504 11.168 50.928 8.528 49.776C5.936 48.576 3.896 46.944 2.408 44.88C0.92 42.768 0.152 40.344 0.104 37.608H7.088C7.328 39.96 8.288 41.952 9.968 43.584C11.696 45.168 14.192 45.96 17.456 45.96C20.576 45.96 23.024 45.192 24.8 43.656C26.624 42.072 27.536 40.056 27.536 37.608C27.536 35.688 27.008 34.128 25.952 32.928C24.896 31.728 23.576 30.816 21.992 30.192C20.408 29.568 18.272 28.896 15.584 28.176C12.272 27.312 9.608 26.448 7.592 25.584C5.624 24.72 3.92 23.376 2.48 21.552C1.088 19.68 0.392 17.184 0.392 14.064C0.392 11.328 1.088 8.904 2.48 6.792C3.872 4.68 5.816 3.048 8.312 1.896C10.856 0.743998 13.76 0.167998 17.024 0.167998C21.728 0.167998 25.568 1.344 28.544 3.696C31.568 6.048 33.272 9.168 33.656 13.056H26.456C26.216 11.136 25.208 9.456 23.432 8.016C21.656 6.528 19.304 5.784 16.376 5.784C13.64 5.784 11.408 6.504 9.68 7.944C7.952 9.336 7.088 11.304 7.088 13.848C7.088 15.672 7.592 17.16 8.6 18.312C9.656 19.464 10.928 20.352 12.416 20.976C13.952 21.552 16.088 22.224 18.824 22.992C22.136 23.904 24.8 24.816 26.816 25.728C28.832 26.592 30.56 27.96 32 29.832C33.44 31.656 34.16 34.152 34.16 37.32C34.16 39.768 33.512 42.072 32.216 44.232C30.92 46.392 29 48.144 26.456 49.488C23.912 50.832 20.912 51.504 17.456 51.504ZM84.0498 60.504L74.0418 50.496C71.5938 51.168 69.0978 51.504 66.5538 51.504C61.8978 51.504 57.6498 50.424 53.8098 48.264C49.9698 46.056 46.9218 43.008 44.6658 39.12C42.4578 35.184 41.3538 30.768 41.3538 25.872C41.3538 20.976 42.4578 16.584 44.6658 12.696C46.9218 8.76 49.9698 5.712 53.8098 3.552C57.6498 1.344 61.8978 0.239997 66.5538 0.239997C71.2578 0.239997 75.5298 1.344 79.3698 3.552C83.2098 5.712 86.2338 8.736 88.4418 12.624C90.6498 16.512 91.7538 20.928 91.7538 25.872C91.7538 30.672 90.6978 34.992 88.5858 38.832C86.4738 42.672 83.5698 45.696 79.8738 47.904L92.5458 60.504H84.0498ZM48.0498 25.872C48.0498 29.856 48.8418 33.36 50.4258 36.384C52.0578 39.408 54.2658 41.736 57.0498 43.368C59.8818 45 63.0498 45.816 66.5538 45.816C70.0578 45.816 73.2018 45 75.9858 43.368C78.8178 41.736 81.0258 39.408 82.6098 36.384C84.2418 33.36 85.0578 29.856 85.0578 25.872C85.0578 21.84 84.2418 18.336 82.6098 15.36C81.0258 12.336 78.8418 10.008 76.0578 8.376C73.2738 6.744 70.1058 5.928 66.5538 5.928C63.0018 5.928 59.8338 6.744 57.0498 8.376C54.2658 10.008 52.0578 12.336 50.4258 15.36C48.8418 18.336 48.0498 21.84 48.0498 25.872ZM107.096 45.672H124.664V51H100.544V0.815998H107.096V45.672ZM166.729 51.504C163.417 51.504 160.441 50.928 157.801 49.776C155.209 48.576 153.169 46.944 151.681 44.88C150.193 42.768 149.425 40.344 149.377 37.608H156.361C156.601 39.96 157.561 41.952 159.241 43.584C160.969 45.168 163.465 45.96 166.729 45.96C169.849 45.96 172.297 45.192 174.073 43.656C175.897 42.072 176.809 40.056 176.809 37.608C176.809 35.688 176.281 34.128 175.225 32.928C174.169 31.728 172.849 30.816 171.265 30.192C169.681 29.568 167.545 28.896 164.857 28.176C161.545 27.312 158.881 26.448 156.865 25.584C154.897 24.72 153.193 23.376 151.753 21.552C150.361 19.68 149.665 17.184 149.665 14.064C149.665 11.328 150.361 8.904 151.753 6.792C153.145 4.68 155.089 3.048 157.585 1.896C160.129 0.743998 163.033 0.167998 166.297 0.167998C171.001 0.167998 174.841 1.344 177.817 3.696C180.841 6.048 182.545 9.168 182.929 13.056H175.729C175.489 11.136 174.481 9.456 172.705 8.016C170.929 6.528 168.577 5.784 165.649 5.784C162.913 5.784 160.681 6.504 158.953 7.944C157.225 9.336 156.361 11.304 156.361 13.848C156.361 15.672 156.865 17.16 157.873 18.312C158.929 19.464 160.201 20.352 161.689 20.976C163.225 21.552 165.361 22.224 168.097 22.992C171.409 23.904 174.073 24.816 176.089 25.728C178.105 26.592 179.833 27.96 181.273 29.832C182.713 31.656 183.433 34.152 183.433 37.32C183.433 39.768 182.785 42.072 181.489 44.232C180.193 46.392 178.273 48.144 175.729 49.488C173.185 50.832 170.185 51.504 166.729 51.504ZM229.075 29.76C229.075 31.008 229.003 32.328 228.859 33.72H197.323C197.563 37.608 198.883 40.656 201.283 42.864C203.731 45.024 206.683 46.104 210.139 46.104C212.971 46.104 215.323 45.456 217.195 44.16C219.115 42.816 220.459 41.04 221.227 38.832H228.283C227.227 42.624 225.115 45.72 221.947 48.12C218.779 50.472 214.843 51.648 210.139 51.648C206.395 51.648 203.035 50.808 200.059 49.128C197.131 47.448 194.827 45.072 193.147 42C191.467 38.88 190.627 35.28 190.627 31.2C190.627 27.12 191.443 23.544 193.075 20.472C194.707 17.4 196.987 15.048 199.915 13.416C202.891 11.736 206.299 10.896 210.139 10.896C213.883 10.896 217.195 11.712 220.075 13.344C222.955 14.976 225.163 17.232 226.699 20.112C228.283 22.944 229.075 26.16 229.075 29.76ZM222.307 28.392C222.307 25.896 221.755 23.76 220.651 21.984C219.547 20.16 218.035 18.792 216.115 17.88C214.243 16.92 212.155 16.44 209.851 16.44C206.539 16.44 203.707 17.496 201.355 19.608C199.051 21.72 197.731 24.648 197.395 28.392H222.307ZM244.276 17.952C245.428 15.696 247.06 13.944 249.172 12.696C251.332 11.448 253.948 10.824 257.02 10.824V17.592H255.292C247.948 17.592 244.276 21.576 244.276 29.544V51H237.724V11.544H244.276V17.952ZM279.271 44.952L291.511 11.544H298.495L283.015 51H275.383L259.903 11.544H266.959L279.271 44.952ZM340.942 29.76C340.942 31.008 340.87 32.328 340.726 33.72H309.19C309.43 37.608 310.75 40.656 313.15 42.864C315.598 45.024 318.55 46.104 322.006 46.104C324.838 46.104 327.19 45.456 329.062 44.16C330.982 42.816 332.326 41.04 333.094 38.832H340.15C339.094 42.624 336.982 45.72 333.814 48.12C330.646 50.472 326.71 51.648 322.006 51.648C318.262 51.648 314.902 50.808 311.926 49.128C308.998 47.448 306.694 45.072 305.014 42C303.334 38.88 302.494 35.28 302.494 31.2C302.494 27.12 303.31 23.544 304.942 20.472C306.574 17.4 308.854 15.048 311.782 13.416C314.758 11.736 318.166 10.896 322.006 10.896C325.75 10.896 329.062 11.712 331.942 13.344C334.822 14.976 337.03 17.232 338.566 20.112C340.15 22.944 340.942 26.16 340.942 29.76ZM334.174 28.392C334.174 25.896 333.622 23.76 332.518 21.984C331.414 20.16 329.902 18.792 327.982 17.88C326.11 16.92 324.022 16.44 321.718 16.44C318.406 16.44 315.574 17.496 313.222 19.608C310.918 21.72 309.598 24.648 309.262 28.392H334.174ZM356.143 17.952C357.295 15.696 358.927 13.944 361.039 12.696C363.199 11.448 365.815 10.824 368.887 10.824V17.592H367.159C359.815 17.592 356.143 21.576 356.143 29.544V51H349.591V11.544H356.143V17.952Z" fill="white"/>
</svg>
