<svg width="425" height="65" viewBox="0 0 500 65" fill="none" xmlns="http://www.w3.org/2000/svg">
<path fill-rule="evenodd" clip-rule="evenodd" d="M28.2 29.2H17.4V50.1C17.4 55.7 21.1 55.6 28.2 55.3V63.8C13.7 65.5 8 61.5 8 50.2V29.3H0V20.2H8V8.5L17.4 5.69998V20.2H28.2V29.2ZM69.4 20.1H78.8V63.7H69.4V57.4C66.1 62 60.9 64.8 54.1 64.8C42.2 64.8 32.4 54.8 32.4 41.9C32.4 28.9 42.3 19 54.1 19C60.9 19 66.1 21.8 69.4 26.3V20.1ZM55.6 55.9C63.5 55.9 69.4 50.1 69.4 41.9C69.4 33.8 63.5 27.9 55.6 27.9C47.8 27.9 41.8 33.7 41.8 41.9C41.8 50.1 47.8 55.9 55.6 55.9ZM94.5 13.6C91.2 13.6 88.5 10.8 88.5 7.60001C88.5 4.30001 91.2 1.60001 94.5 1.60001C97.8 1.60001 100.5 4.30001 100.5 7.60001C100.6 10.8 97.8 13.6 94.5 13.6ZM89.8 63.7V20.1H99.2V63.7H89.8ZM110.1 63.7V0H119.5V63.7H110.1ZM180.7 20.1H190.6L176.9 63.7H167.7L158.6 34.3L149.4 63.7H140.2L126.5 20.1H136.4L144.9 50.2L154.1 20.1H163.1L172.2 50.2L180.7 20.1ZM202.4 13.6C199.1 13.6 196.4 10.8 196.4 7.60001C196.4 4.30001 199.1 1.60001 202.4 1.60001C205.7 1.60001 208.4 4.30001 208.4 7.60001C208.4 10.8 205.7 13.6 202.4 13.6ZM197.6 63.7V20.1H207V63.7H197.6ZM240.9 19C250.7 19 257.7 25.6 257.7 37V63.8H248.3V37.9C248.3 31.3 244.5 27.8 238.5 27.8C232.3 27.8 227.4 31.5 227.4 40.4V63.8H218V20.2H227.4V25.8C230.3 21.2 235 19 240.9 19ZM302.3 2.69998H311.7V63.8H302.3V57.5C299 62.1 293.8 64.9 287 64.9C275.1 64.9 265.3 54.9 265.3 42C265.3 29 275.2 19.1 287 19.1C293.8 19.1 299 21.9 302.3 26.4V2.69998ZM288.6 55.9C296.5 55.9 302.4 50.1 302.4 41.9C302.4 33.8 296.5 27.9 288.6 27.9C280.8 27.9 274.8 33.7 274.8 41.9C274.8 50.1 280.7 55.9 288.6 55.9ZM343.3 64.9C330.1 64.9 320.3 54.9 320.3 42C320.3 29 330.2 19.1 343.3 19.1C351.9 19.1 359.3 23.5 362.8 30.4L354.7 35.1C352.8 31 348.5 28.4 343.3 28.4C335.6 28.4 329.8 34.2 329.8 42.1C329.8 50 335.6 55.8 343.3 55.8C348.5 55.8 352.8 53.1 354.9 49.1L363 53.7C359.3 60.4 351.9 64.9 343.3 64.9ZM378.5 32.2C378.5 40.1 402 35.3 402 51.5C402 60.2 394.4 64.9 385 64.9C376.3 64.9 370 61 367.2 54.7L375.3 50C376.7 53.9 380.2 56.3 385 56.3C389.2 56.3 392.4 54.9 392.4 51.4C392.4 43.6 368.9 48 368.9 32.4C368.9 24.2 376 19.1 384.9 19.1C392.1 19.1 398 22.4 401 28.2L393.1 32.6C391.5 29.2 388.5 27.6 384.9 27.6C381.5 27.5 378.5 29 378.5 32.2ZM418.7 32.2C418.7 40.1 442.2 35.3 442.2 51.5C442.2 60.2 434.6 64.9 425.2 64.9C416.5 64.9 410.2 61 407.4 54.7L415.5 50C416.9 53.9 420.4 56.3 425.2 56.3C429.4 56.3 432.6 54.9 432.6 51.4C432.6 43.6 409.1 48 409.1 32.4C409.1 24.2 416.2 19.1 425.1 19.1C432.3 19.1 438.2 22.4 441.2 28.2L433.3 32.6C431.7 29.2 428.7 27.6 425.1 27.6C421.7 27.5 418.7 29 418.7 32.2Z" fill="white"/>
</svg>
